<svg width="3730" height="807" viewBox="0 0 3730 807" fill="none" xmlns="http://www.w3.org/2000/svg">
<path fill-rule="evenodd" clip-rule="evenodd" d="M130.017 367.04L130.017 0.000708882L3.3652e-05 0L0 806.177H130.017V661.995L352.154 806.171V806.166L577.535 659.885V513.603L352.153 662.645V662.648L130.017 515.753V513.317L354.971 364.559L580.353 513.6V367.318L354.974 221.039V221.034L354.971 221.037L354.97 221.036V221.037L130.017 367.04ZM802.92 659.883L577.537 513.601V659.883L802.92 806.165V659.883Z" fill="#3C3C3C"/>
<path d="M932.948 806.175V221.047H1047.63V691.321H1245.02V806.175H932.948Z" fill="#3C3C3C"/>
<path d="M1393.88 806.175H1271.02L1430.6 221.047H1582.79L1742.38 806.175H1619.51L1508.43 368.472H1504.74L1393.88 806.175ZM1377.49 575.895H1634.29V683.321H1377.49V575.895Z" fill="#3C3C3C"/>
<path d="M1768.38 221.047H1909.35L2028.93 583.323H2034.45L2154.03 221.047H2295V806.175H2184.15V446.755H2180.25L2067.1 802.461H1996.28L1883.13 444.756H1879.22V806.175H1768.38V221.047Z" fill="#3C3C3C"/>
<path d="M2443.86 806.175H2321L2480.58 221.047H2632.77L2792.36 806.175H2669.49L2558.41 368.472H2554.72L2443.86 806.175ZM2427.47 575.895H2684.27V683.321H2427.47V575.895Z" fill="#3C3C3C"/>
<path d="M3252.64 435.186H3137.2C3135.66 420.91 3132.5 408.025 3127.73 396.53C3122.96 385.035 3116.65 375.208 3108.8 367.051C3100.95 358.893 3091.64 352.682 3080.87 348.418C3070.25 343.968 3058.47 341.743 3045.54 341.743C3022.61 341.743 3002.83 348.511 2986.21 362.045C2969.74 375.579 2957.04 395.139 2948.11 420.725C2939.34 446.31 2934.95 477.272 2934.95 513.611C2934.95 551.433 2939.42 583.137 2948.34 608.722C2957.42 634.122 2970.12 653.311 2986.44 666.289C3002.91 679.082 3022.38 685.478 3044.85 685.478C3057.47 685.478 3068.94 683.532 3079.25 679.638C3089.72 675.745 3098.87 670.09 3106.72 662.674C3114.73 655.072 3121.27 645.895 3126.35 635.142C3131.58 624.203 3135.2 611.874 3137.2 598.154L3252.64 598.988C3250.64 624.203 3244.56 649.047 3234.4 673.52C3224.39 697.993 3210.62 720.334 3193.07 740.543C3175.52 760.566 3154.13 776.511 3128.89 788.376C3103.8 800.242 3075.02 806.175 3042.54 806.175C2999.75 806.175 2961.43 794.865 2927.56 772.246C2893.86 749.442 2867.23 716.255 2847.68 672.686C2828.14 629.116 2818.36 576.091 2818.36 513.611C2818.36 450.945 2828.29 397.827 2848.14 354.258C2868 310.689 2894.86 277.594 2928.72 254.975C2962.58 232.356 3000.52 221.047 3042.54 221.047C3071.17 221.047 3097.64 225.867 3121.96 235.508C3146.28 244.964 3167.67 258.869 3186.14 277.224C3204.61 295.393 3219.62 317.734 3231.16 344.246C3242.71 370.759 3249.87 401.072 3252.64 435.186Z" fill="#3C3C3C"/>
<path d="M3730 513.611C3730 576.277 3720 629.394 3699.99 672.964C3679.98 716.533 3652.89 749.627 3618.72 772.246C3584.7 794.865 3546.53 806.175 3504.21 806.175C3461.73 806.175 3423.48 794.773 3389.46 771.968C3355.45 749.164 3328.43 716.07 3308.42 672.686C3288.57 629.116 3278.64 576.091 3278.64 513.611C3278.64 450.945 3288.57 397.827 3308.42 354.258C3328.43 310.689 3355.45 277.594 3389.46 254.975C3423.48 232.356 3461.73 221.047 3504.21 221.047C3546.53 221.047 3584.7 232.356 3618.72 254.975C3652.89 277.594 3679.98 310.689 3699.99 354.258C3720 397.827 3730 450.945 3730 513.611ZM3613.18 513.611C3613.18 476.531 3608.79 445.198 3600.02 419.612C3591.4 394.027 3578.93 374.652 3562.62 361.489C3546.46 348.325 3526.99 341.743 3504.21 341.743C3481.58 341.743 3462.11 348.325 3445.79 361.489C3429.48 374.652 3416.94 394.027 3408.16 419.612C3399.54 445.198 3395.23 476.531 3395.23 513.611C3395.23 550.691 3399.54 582.024 3408.16 607.61C3416.94 633.195 3429.48 652.569 3445.79 665.733C3462.11 678.897 3481.58 685.478 3504.21 685.478C3526.99 685.478 3546.46 678.897 3562.62 665.733C3578.93 652.569 3591.4 633.195 3600.02 607.61C3608.79 582.024 3613.18 550.691 3613.18 513.611Z" fill="#3C3C3C"/>
</svg>
